<svg id="Layer_1" data-name="Layer 1" xmlns="http://www.w3.org/2000/svg" viewBox="0 0 236.6 165.57"><defs><style>.cls-1{fill:#0071bc;}.cls-2{fill:aqua;}.cls-3{fill:#ed1c24;}</style></defs><title>SkillSwap</title><path class="cls-1" d="M469.21,346.41a21.12,21.12,0,0,1-4.38-.44,17.31,17.31,0,0,1-3.85-1.32,16.55,16.55,0,0,1-3.35-2.2l2.79-3.43a12.69,12.69,0,0,0,4,2.38,14.21,14.21,0,0,0,4.77.79,9.58,9.58,0,0,0,5.39-1.3,4.14,4.14,0,0,0,1.91-3.63v0a3.77,3.77,0,0,0-1-2.79A6,6,0,0,0,473,333a28.79,28.79,0,0,0-3.44-.78q-1.8-.3-3.63-.72a12.19,12.19,0,0,1-3.38-1.31,6.69,6.69,0,0,1-2.47-2.56,9.16,9.16,0,0,1-.93-4.46v0a8.44,8.44,0,0,1,3-6.91q3-2.44,8.37-2.45a15.73,15.73,0,0,1,5,.82,17.68,17.68,0,0,1,4.79,2.52l-2.55,3.56a14.27,14.27,0,0,0-3.64-2,10.52,10.52,0,0,0-3.63-.66,8.59,8.59,0,0,0-5.09,1.3,4.31,4.31,0,0,0-1.81,3.71v0a3.48,3.48,0,0,0,1.05,2.74,6.6,6.6,0,0,0,2.76,1.4c1.13.3,2.35.58,3.66.85s2.34.51,3.51.84a11.61,11.61,0,0,1,3.2,1.43,6.82,6.82,0,0,1,2.31,2.56,9,9,0,0,1,.87,4.24v0a8.2,8.2,0,0,1-3.08,6.84Q474.79,346.41,469.21,346.41Z" transform="translate(-457.63 -248.13)"/><path class="cls-1" d="M486.88,346.08V314.13h4.48v31.95Zm2.85-7.3.66-6.72,14.11-17.93H510Zm16.13,7.3L495.71,329l3.54-3.28,12.11,20.33Z" transform="translate(-457.63 -248.13)"/><path class="cls-1" d="M520.67,314.13v31.95h-4.48V314.13Z" transform="translate(-457.63 -248.13)"/><path class="cls-1" d="M528.58,346.08V314.13h4.48v31.95Zm2.24,0v-4.27H549.1v4.27Z" transform="translate(-457.63 -248.13)"/><path class="cls-1" d="M554.38,346.08V314.13h4.48v31.95Zm2.24,0v-4.27H574.9v4.27Z" transform="translate(-457.63 -248.13)"/><path class="cls-1" d="M588.9,346.41a21.14,21.14,0,0,1-4.39-.44,17.06,17.06,0,0,1-3.84-1.32,16.27,16.27,0,0,1-3.35-2.2l2.79-3.43a12.47,12.47,0,0,0,4,2.38,14.12,14.12,0,0,0,4.77.79,9.55,9.55,0,0,0,5.38-1.3,4.12,4.12,0,0,0,1.91-3.63v0a3.81,3.81,0,0,0-1-2.79,6.11,6.11,0,0,0-2.54-1.44,29.71,29.71,0,0,0-3.44-.78c-1.2-.2-2.41-.44-3.64-.72a12.24,12.24,0,0,1-3.37-1.31,6.55,6.55,0,0,1-2.47-2.56,9.15,9.15,0,0,1-.94-4.46v0a8.44,8.44,0,0,1,3-6.91q3-2.44,8.37-2.45a15.68,15.68,0,0,1,5,.82,17.68,17.68,0,0,1,4.79,2.52l-2.55,3.56a14.06,14.06,0,0,0-3.63-2,10.57,10.57,0,0,0-3.64-.66,8.56,8.56,0,0,0-5.08,1.3,4.32,4.32,0,0,0-1.82,3.71v0a3.45,3.45,0,0,0,1.06,2.74,6.56,6.56,0,0,0,2.75,1.4c1.14.3,2.36.58,3.66.85s2.35.51,3.52.84a11.75,11.75,0,0,1,3.2,1.43,6.8,6.8,0,0,1,2.3,2.56,9,9,0,0,1,.87,4.24v0a8.17,8.17,0,0,1-3.08,6.84Q594.48,346.41,588.9,346.41Z" transform="translate(-457.63 -248.13)"/><path class="cls-1" d="M614,339.18l6.55-25.05h3.08l6.54,25.05,5.65-25.05h4.66l-7.8,31.95h-4.57l-5.89-22.33-6.15,22.33h-4.57l-7.8-31.95h4.66Z" transform="translate(-457.63 -248.13)"/><path class="cls-1" d="M640.05,346.08l11.78-31.95h3.82l11.78,31.95h-4.84l-8.85-25.78-8.86,25.78Zm5.43-7V334.8h16.81v4.27Z" transform="translate(-457.63 -248.13)"/><path class="cls-1" d="M672.26,346.08V314.13h4.48v31.95Zm2.31-12.4v-4.26h10.22a4.42,4.42,0,0,0,3.52-1.52,5.78,5.78,0,0,0,1.33-4,5.86,5.86,0,0,0-1.33-4,4.45,4.45,0,0,0-3.52-1.52H674.57v-4.26h10.06a10,10,0,0,1,5.06,1.22,8.59,8.59,0,0,1,3.35,3.41,11.76,11.76,0,0,1,0,10.31,8.5,8.5,0,0,1-3.35,3.4,10.13,10.13,0,0,1-5.06,1.21Z" transform="translate(-457.63 -248.13)"/><path class="cls-2" d="M512.62,303,506.38,294c4.1-2.82,100.8-68.42,138.53-17.76l-8.82,6.58C604.62,240.52,513.53,302.4,512.62,303Z" transform="translate(-457.63 -248.13)"/><path class="cls-3" d="M546.9,406.61c-16.17,0-31.17-5.17-41.81-19.45l8.82-6.57c31.41,42.18,118.56-18,119.44-18.6l6.3,9C636.83,373,588.11,406.61,546.9,406.61Z" transform="translate(-457.63 -248.13)"/><polygon class="cls-2" points="204.11 49.99 199.2 13.76 176.11 43.63 204.11 49.99"/><path class="cls-2" d="M668.26,305.23l-44.14-10,36.39-47.08ZM643.37,288.3,655.23,291l-2.08-15.34Z" transform="translate(-457.63 -248.13)"/><polygon class="cls-3" points="30.37 116.19 40.09 151.44 58.97 118.75 30.37 116.19"/><path class="cls-3" d="M495.91,413.69l-15.32-55.55,45.08,4Zm-.5-43.19,4.12,14.93,8-13.85Z" transform="translate(-457.63 -248.13)"/></svg>